<svg id="Layer_6" data-name="Layer 6" xmlns="http://www.w3.org/2000/svg" viewBox="0 0 156 114"><defs><style>.cls-1,.cls-3{fill:#374151;}.cls-2,.cls-4{fill:#cdab4e;}.cls-3{stroke:#cdab4e;}.cls-3,.cls-4{stroke-miterlimit:10;}.cls-4{font-size:37.46px;stroke:#374151;font-family:Kanit-ExtraBold, Kanit;font-weight:800;}.cls-5{letter-spacing:-0.01em;}.cls-6{letter-spacing:-0.01em;}.cls-7{letter-spacing:-0.02em;}</style></defs><rect class="cls-1" x="26" y="8.52" width="103.35" height="105.48" rx="48.5"/><rect class="cls-1" x="26" width="103.35" height="68.19"/><rect class="cls-2" x="29" y="13" width="97" height="99" rx="48.5"/><rect class="cls-2" x="29" y="5" width="97" height="64"/><rect class="cls-1" x="34.88" y="16.1" width="86.12" height="87.9" rx="43.06"/><rect class="cls-1" x="34.88" y="9" width="86.12" height="56.82"/><g id="_1-Pico" data-name="1-Pico"><path class="cls-3" d="M76.5,87.82s1.87,6.05-1.87,7.7c0,0-2.33,1-3.37.61,0,0-3.34,1.81-3.89,1.15,0,0-2.64.63-2.7,1.58,0,0-1.48-.48-1,2,0,0,.44-1.32,1-.88,0,0,2.42,0,2.75.33,0,0,2.75-1,2.75-1.32,0,0,2.86-.11,3-.44,0,0-3.46,1.65-2.83,2.31,0,0-1.68,0-1.13,2.09,0,0,.5-1.52,1.13-.81,0,0,1.62.26,2.17-.18,0,0,1.87-1.1,2-1.54,0,0,1.65-.44,1.76-.77l.55-.66,1.32.55,1.65-.11s1,.77,1.43.77a3,3,0,0,0,2.53-.22l1.1-.22.33.44a1.29,1.29,0,0,0-.44-1.32l-1,.11s-.44-1.65-4.18-1.32c0,0-1.1.22-1.21-1.87,0,0,1.43-.11,1.54.88,0,0,1.1-1.1-.88-3.08,0,0,.22-7.81.88-7.81,0,0,1.12-1.87,1.88-1.87h0s4.26-3.11,3.17-4.42h0l-10.22-.09H72s4,5.39,4.07,7.26l.44,1.1"/><path class="cls-3" d="M91,54.38s3.85-.91,0-6.61c0,0,2.2.56,2.64,1.44-1.4-34.19,39.76-33.38,39.05-8,0,0,0,1.43-.88,1.1,0,0-5.28-10.56-6.71-10.34,0,0,2.09,3.52,2.09,4.51,0,0,.11,2.86-2.42-.55,0,0,5.61,4.73,6,11.33,0,0,.22,9.24-1.87,13.31,0,0-1.21,1.1-1.54-3.52,0,0,0-11.66-1.76-12.76,0,0,.66,4.73-1.1,4.73,3.52,1.92,4.82,5.87-2.86,7.15,0,0,3.52.44,2.86,2.09s1.32,3.19-6.6,5h-2.43c1.6,3,.86,2.91-2,4.62,0,0-.11,5.72-2.64,7.15,0,0-.66,1.1-1.21-1.32,0,0,1-8.91.11-9.68-6.08-3.47,1.5,8.13-3.74,14,0,0-.33,4.29-1.21-10.45,0,0-2.86-7.7-6.93-5.72l-2.09.77-6-6.93Z"/><path id="Black" class="cls-3" d="M95.42,58.45c6-8.31,16.11.31,14.52,16,0,0,.33,1.43.77,1.1,2.48,1.29,6.91-24.74-8.58-25.3,0,0-3.85.66-5.78,3.19,0,0,8.86-23.1,21.4-18,0,0,10.45,2.64,10,23.43,0,0-.22.22.88,1.87,10.47-16-13.68-46.44-28.38-20.35L94.69,52.93c4.11-15.6,18.41-32,32.24-15.44,1.66-5-4.33-7.32-6.48-8.69-5.29-2.47-10.67-1.06-12.88-.32a37.59,37.59,0,0,0-5.5,5.5c-3.59,3.51-7.29,14-7.38,17.12,2.58-11.45,7.37-27.32,23.66-23.06,6.41,1.92,10,7.32,10.67,9.35a18.79,18.79,0,0,0,2.53,5c3.51,1,1-6.85.83-7.75-7.59-19-39.76-16-38.83,15.18.07.06-.38,6-2.15,4.76A42.59,42.59,0,0,0,95.42,58.45Z"/><path id="Colorao" class="cls-3" d="M91.84,54s2.31-2-.77-6.26c0,0,2.42.87,2.53,1.65S96,53.44,94.81,55.2c0,0,1.32-4.18,1-5.05,0,0,1.43,4.73,1,6.49a23.91,23.91,0,0,1,2.81-2.32c.16.12-2.15,5.5-2.59,5.17,5.14-5.61,16.14,9.81,8.8,18.7,0,0,.11.66-.55-.54.19-1.94,1.15-11.88-5-15.39l-1-.57-1.64.12-1.45.45c-.44-1.36-1.41-6.5-5.38-7.5Z"/><path class="cls-3" d="M56.26,38c-8.21,18.79-3.14,23,13.86,38.17,0,0,5.72,7.92,6,9.79l-.33-1.87.66,3.74.88-3,1.08,3,.9-2.09s5.83-4.07,5.83-5.83c0,0,7.26,1.73,7.2.87s.83-1.75-1.48-3.07V75.94l.33-2.42,2.09,3.19s.11-5.7,0-6.59,1.43,4.94,1.43,4.94,2.64-7.26,1.43-8.69,2.2,3.63,1.65,5.39c1.7-9.7-.19-12.43-10-20.45,0,0-4.84-2-6.49-4.74l-2.75-7.15-2.42-4.07H58.05Z"/><path id="Black-2" data-name="Black" class="cls-3" d="M67.86,68.73S84,81.49,91,81.16c0,0,2.86.21,0-3,0,0,1.76.66-1-4.62,0,0,.22-5.18-2.14-7.26a8.36,8.36,0,0,0-1.6-3.41s-1.54-6.38-4.73-6.81h0L64.67,64.66l.55,1.54Z"/><path id="Black-3" data-name="Black" class="cls-3" d="M61,58.28s4.4,11.23,10.45,12.77c0,0,1.87.65,1-1.87a24.65,24.65,0,0,0,3.3,1c.88.11,1.65-1.82,0-4.21a12.33,12.33,0,0,0,1.87.48c1.25,1.16,3-1.14.88-3.86,0,0,1.54,1.44,2.42,1.44,0,0,2-.33.55-3.2,0,0,1,1.21,1.43.45a1.34,1.34,0,0,0,0-2A6.7,6.7,0,0,0,85,61.69l1.21,1.21c-.42-2.56-1.45-5.66-4.73-6.81-.13-.62-.47-2.11-.63-2.7Z"/><path id="Black-4" data-name="Black" class="cls-3" d="M63.13,44.31C58.83,48.58,58.67,57.21,61,61L62.25,58l1.87,2.53a22.77,22.77,0,0,1,.66-3.08c.33-.88-1.87,1.87,7.26,4.41,0,0-.66-2,0-2.39,0,0,4.95.18,5.83,1.18l.66.21s-.66-4.72-1.32-5c0,0,3.63,2.09,4.18,3.63,0,0,.44-7.37-2-9.34a15.19,15.19,0,0,1,3.58.69c.6.4-1.49-4.32-1.49-4.32C80.77,46,66.41,37.59,63.13,44.31Z"/><path class="cls-3" d="M58.79,33.7a51.93,51.93,0,0,0-2.86,5.06v3.33s4.14-5.5,5.32-4.2c0,0-2,4.72-1,6.7,0,0,1-2.75,2.09-2.64,0,0-.66,2.09,0,2.64s1.65-3.19,2-2.2S62.75,48,66.6,51.19c0,0,.44-7.37,1-5.39,0,0-.75,5.9,5.9,7.62,0,0-.93-4.86,0-4.59,0,0,4.71,4.12,4.08,4.56,0,0,1.07-4.66.06-4.91,0,0,5.91,1.5,6,2.71,0,0-5.61-15.95-7.15-16.17,0,0-4.18-12.65-10.34-15,0,0-2.2-2.75-3.19-1.87l2.2-1.1a3.63,3.63,0,0,0-2.68,0l-1.61,1.54.57-1.78a14.71,14.71,0,0,0-1.89,2.22s.48-2.36.68-2.22c-3.56,1.78-2.48,6.71-7,6.29l4.84.22s4,1,4.73-.11c0,0-1.43,1.65-1.1,2.75,0,0,1.76,4.29.55,5.94,0,0-1.32,2-2.64,1.54Z"/><path id="Base" class="cls-3" d="M54,11.33a7.46,7.46,0,0,1-2.06,3.45s-.44,4.29,1.32,4.73c0,0-1.14,1.28-.79,2,0,0,.46,1.67,1.12,1.56s2.86-.11,3.41-.55,3.74-3.63,3.74-3.63l1.87-1,1.21-1.32s3.41-1.43,3.85-1.76a3,3,0,0,0,1.87-4.18l-.44-1.17-1,1.72h0V9.06h0l-1.76-2A10,10,0,0,1,66.1,9a1.09,1.09,0,0,1-.33.66.77.77,0,0,1-.66.22c-.39-.16-.3-1.22-.11-3.63h0a2.8,2.8,0,0,0-.35-.9,3.08,3.08,0,0,0-2-1.3,5.61,5.61,0,0,1,.55,2.09,5.79,5.79,0,0,1-.11,1.65A1.6,1.6,0,0,1,62.65,9a1.57,1.57,0,0,1-.84.41L61.48,7.3V5.87l-1.1-.77S59,8.29,59.17,9.61l-.33.93-.42.53s.35-3.81,0-4.17c0,0-1.78,1.39-1.67,1.94s-1.43.88-1,2.53a4,4,0,0,1-.88,3.19s-1-.77-.55-1.43A1.62,1.62,0,0,0,54,11.33Z"/><path class="cls-3" d="M63,19.18a2.54,2.54,0,0,0-2.86,1.32c-1.21,1.87-2.09.55-2.2.77,0,0-.88.44-.66.88a4,4,0,0,0,5.17.88l.55.15a7,7,0,0,0-1.32,2.71s-.11,1.59,1.32,1.73c0,0,2.09.91,1.54-1.95,0,0-.77-2.2-.33-3.3,0,0,1.21-2.09,0-2.64Z"/><path class="cls-3" d="M56.48,25.89s-2.64,2.75-2.75,4a3.07,3.07,0,0,0,2.75,4.08s4.73.1,5.28-1.22a2.89,2.89,0,0,0,1-1.21,3.29,3.29,0,0,0,.11-1.87A11.43,11.43,0,0,0,62,26.55a3.3,3.3,0,0,0-1.32-1.65,3.38,3.38,0,0,0-2.52-.42s-.36.07-.68,1.36c0,.15-.07.31-.1.49l-.13.36c-.28.75-.91,2.5-1.08,3.27,0,0-.44,2.2.77,2.86l.33.44a3.35,3.35,0,0,1-.61-.66,3.41,3.41,0,0,1-.49-1.1,7.05,7.05,0,0,1,.32-2.1,8.23,8.23,0,0,0,.78-2.74,3.51,3.51,0,0,0-.11-.88Z"/><path class="cls-3" d="M59.12,21.49a1.6,1.6,0,0,0,2.78,0,1.69,1.69,0,0,0,.41-2.09,2.85,2.85,0,0,0-.77.11,3.11,3.11,0,0,0-1.7,1.35Z"/><path class="cls-3" d="M61.54,19.51a2.29,2.29,0,0,0-.55.22,3.07,3.07,0,0,0-.88.77,5.49,5.49,0,0,0-.44.55,1,1,0,0,0,.66.82.66.66,0,0,0,.44-.05,2.26,2.26,0,0,0,.63-.47,2.46,2.46,0,0,0,.58-1,1.39,1.39,0,0,0-.11-.44A1.21,1.21,0,0,0,61.54,19.51Z"/><path class="cls-3" d="M60.11,20.72a.61.61,0,0,0,.47.5.73.73,0,0,0,.63-.17.91.91,0,0,0,.33-.33.94.94,0,0,0,.11-.44l-.11-.55C60.64,19.94,60.08,20.36,60.11,20.72Z"/><path class="cls-3" d="M61.87,26.44s-7.48-1.87-10,1.21c0,0-1.43-2.09,1.43-4.4,0,0,8,.33,8.25.44l-.22-.11,2-.77A5.81,5.81,0,0,0,61.87,26.44Z"/></g><text class="cls-4" transform="translate(-1 89.35) scale(0.68 1)"><tspan class="cls-5">R</tspan><tspan x="23.6" y="0">o</tspan><tspan class="cls-6" x="46.68" y="0">o</tspan><tspan class="cls-5" x="69.56" y="0">s</tspan><tspan x="87.62" y="0">ter</tspan><tspan class="cls-7" x="139.16" y="0">F</tspan><tspan x="158.79" y="0">ight</tspan></text></svg>